<?xml version="1.0" standalone="no"?>
<!DOCTYPE svg PUBLIC "-//W3C//DTD SVG 20010904//EN"
 "http://www.w3.org/TR/2001/REC-SVG-20010904/DTD/svg10.dtd">
<svg version="1.0" xmlns="http://www.w3.org/2000/svg"
 width="1250.000000pt" height="1250.000000pt" viewBox="0 0 1250.000000 1250.000000"
 preserveAspectRatio="xMidYMid meet">
<metadata>
Created by potrace 1.11, written by Peter Selinger 2001-2013
</metadata>
<g transform="translate(0.000000,1250.000000) scale(0.100000,-0.100000)"
fill="#000000" stroke="none">
<path d="M7460 11134 l0 -1367 -73 -77 c-41 -42 -93 -104 -116 -138 -54 -80
-126 -229 -153 -316 l-21 -68 -1416 1416 -1417 1417 -340 -343 c-187 -189
-380 -388 -428 -443 -725 -820 -1131 -1751 -1248 -2865 -20 -193 -17 -834 5
-1025 51 -443 144 -844 278 -1202 l49 -131 -56 -89 c-153 -241 -252 -520 -274
-771 -9 -100 -58 -305 -336 -1410 -178 -712 -324 -1295 -324 -1298 0 -2 -220
-4 -490 -4 l-490 0 0 -1210 0 -1210 3630 0 3630 0 0 1210 0 1210 -494 0 -494
0 -51 206 c-29 114 -50 208 -48 211 3 2 69 -1 148 -6 79 -6 228 -11 331 -11
1249 -1 2391 430 3322 1252 67 58 276 262 466 452 l345 346 -1408 1408 c-774
774 -1407 1410 -1407 1414 0 3 30 16 68 29 152 50 316 149 443 268 l77 71
1366 0 1366 0 0 458 c0 480 -8 663 -39 877 -81 558 -310 1128 -635 1580 -170
236 -471 553 -698 733 -533 423 -1121 673 -1803 768 -97 13 -231 18 -692 21
l-573 5 0 -1368z m1090 545 c531 -49 1063 -267 1493 -612 540 -434 918 -1090
1022 -1777 8 -58 18 -176 22 -262 l6 -158 -201 0 -202 0 0 59 c0 77 -17 242
-36 361 -60 362 -220 731 -450 1040 -87 116 -310 347 -419 432 -408 319 -869
493 -1392 523 l-123 8 0 198 0 199 83 0 c45 0 134 -5 197 -11z m1705 -6810 c0
-4 -49 -53 -110 -109 -585 -546 -1329 -920 -2115 -1064 -279 -51 -400 -61
-765 -61 -363 0 -472 9 -775 61 -425 73 -860 222 -1178 402 -41 23 -77 42 -81
42 -4 0 -21 -19 -38 -42 -94 -131 -313 -303 -466 -367 -276 -114 -556 -131
-842 -49 -169 48 -406 195 -525 325 -153 166 -243 334 -298 553 -22 91 -26
127 -26 265 -1 174 9 246 55 388 73 223 220 432 413 583 l40 31 -78 167 c-312
676 -438 1222 -439 1901 0 470 66 871 219 1317 201 586 491 1075 909 1532
l108 118 2996 -2994 c1647 -1646 2995 -2996 2996 -2999z m-1745 5599 c472 -65
921 -376 1165 -808 124 -219 205 -504 205 -722 l0 -68 -199 0 -199 0 -6 78
c-44 506 -370 923 -843 1077 -89 29 -234 55 -310 55 l-53 0 0 205 0 205 83 -5
c45 -4 116 -11 157 -17z m-94 -1219 c78 -29 174 -121 216 -207 31 -62 33 -73
33 -172 0 -99 -2 -110 -33 -172 -79 -161 -259 -260 -417 -229 l-50 10 -237
-237 -238 -237 -145 145 -145 145 237 237 236 237 -2 63 c-5 165 72 322 194
394 95 55 239 65 351 23z m-1963 -7636 l607 -6 0 -399 0 -398 -2850 0 -2850 0
0 400 0 400 433 3 c1016 6 4101 6 4660 0z"/>
</g>
</svg>
